<svg width="25" height="24" viewBox="0 0 25 24" fill="none" xmlns="http://www.w3.org/2000/svg">
<path d="M17.5 3.34001C19.0202 4.2177 20.2826 5.48009 21.1603 7.0003C22.038 8.5205 22.5 10.245 22.5 12.0003C22.5 13.7557 22.0379 15.4802 21.1602 17.0003C20.2825 18.5205 19.0201 19.7829 17.4999 20.6606C15.9797 21.5383 14.2552 22.0003 12.4998 22.0003C10.7445 22.0002 9.02002 21.5381 7.49984 20.6604C5.97965 19.7827 4.71729 18.5203 3.83963 17.0001C2.96198 15.4799 2.49996 13.7554 2.5 12L2.505 11.676C2.561 9.94901 3.06355 8.26598 3.96364 6.79101C4.86373 5.31604 6.13065 4.09947 7.64089 3.2599C9.15113 2.42033 10.8531 1.98641 12.581 2.00045C14.3089 2.01449 16.0036 2.47601 17.5 3.34001ZM12.5 6.00001C12.2348 6.00001 11.9804 6.10537 11.7929 6.29291C11.6054 6.48044 11.5 6.7348 11.5 7.00001C10.7044 7.00001 9.94129 7.31609 9.37868 7.87869C8.81607 8.4413 8.5 9.20437 8.5 10C8.5 10.7957 8.81607 11.5587 9.37868 12.1213C9.94129 12.6839 10.7044 13 11.5 13V15C11.3342 15.0092 11.1686 14.9777 11.0177 14.9084C10.8667 14.839 10.735 14.7339 10.634 14.602L10.566 14.501C10.4292 14.2804 10.2119 14.1216 9.96014 14.0582C9.70836 13.9949 9.44182 14.0319 9.21686 14.1615C8.99191 14.2912 8.82619 14.5032 8.75474 14.7528C8.68329 15.0024 8.71171 15.27 8.834 15.499C9.08924 15.9417 9.45331 16.3118 9.8917 16.5743C10.3301 16.8368 10.8283 16.983 11.339 16.999H11.5C11.4998 17.2441 11.5896 17.4808 11.7524 17.664C11.9152 17.8473 12.1396 17.9643 12.383 17.993L12.5 18C12.7652 18 13.0196 17.8947 13.2071 17.7071C13.3946 17.5196 13.5 17.2652 13.5 17L13.676 16.995C14.4556 16.95 15.1869 16.6027 15.7145 16.027C16.2422 15.4513 16.5245 14.6925 16.5016 13.912C16.4787 13.1314 16.1523 12.3905 15.5918 11.8468C15.0313 11.303 14.2809 10.9993 13.5 11V9.00001C13.858 8.98801 14.171 9.14001 14.366 9.39801L14.434 9.49901C14.5708 9.71966 14.7881 9.87845 15.0399 9.9418C15.2916 10.0052 15.5582 9.9681 15.7831 9.83848C16.0081 9.70886 16.1738 9.49684 16.2453 9.24724C16.3167 8.99764 16.2883 8.73004 16.166 8.50102C15.9109 8.05816 15.5469 7.68783 15.1085 7.42514C14.6701 7.16245 14.1718 7.01612 13.661 7.00001H13.5C13.5 6.7348 13.3946 6.48044 13.2071 6.29291C13.0196 6.10537 12.7652 6.00001 12.5 6.00001ZM13.5 13C13.7652 13 14.0196 13.1054 14.2071 13.2929C14.3946 13.4804 14.5 13.7348 14.5 14C14.5 14.2652 14.3946 14.5196 14.2071 14.7071C14.0196 14.8947 13.7652 15 13.5 15V13ZM11.5 9.00001V11C11.2348 11 10.9804 10.8947 10.7929 10.7071C10.6054 10.5196 10.5 10.2652 10.5 10C10.5 9.7348 10.6054 9.48044 10.7929 9.29291C10.9804 9.10537 11.2348 9.00001 11.5 9.00001Z" fill="#6EE7B7"/>
</svg>
