<svg width="33" height="32" viewBox="0 0 33 32" fill="none" xmlns="http://www.w3.org/2000/svg">
<path d="M29.9385 3.19995H3.0601C2.5289 3.19995 2.1001 3.62715 2.1001 4.15995V7.99995H30.9001V4.15995C30.9001 4.03375 30.8752 3.90878 30.8269 3.79221C30.7785 3.67563 30.7077 3.56973 30.6184 3.48056C30.529 3.3914 30.423 3.32072 30.3064 3.27257C30.1897 3.22442 30.0647 3.19974 29.9385 3.19995ZM3.7001 26.56C3.7001 27.792 4.7065 28.8 5.9385 28.8H27.0585C28.2905 28.8 29.2985 27.7904 29.2985 26.56V9.59995H3.7001V26.56ZM11.7001 12.8H21.3001V16H11.7001V12.8Z" fill="#CAD5E2"/>
<path d="M29.9385 3.19995H3.0601C2.5289 3.19995 2.1001 3.62715 2.1001 4.15995V7.99995H30.9001V4.15995C30.9001 4.03375 30.8752 3.90878 30.8269 3.79221C30.7785 3.67563 30.7077 3.56973 30.6184 3.48056C30.529 3.3914 30.423 3.32072 30.3064 3.27257C30.1897 3.22442 30.0647 3.19974 29.9385 3.19995ZM3.7001 26.56C3.7001 27.792 4.7065 28.8 5.9385 28.8H27.0585C28.2905 28.8 29.2985 27.7904 29.2985 26.56V9.59995H3.7001V26.56ZM11.7001 12.8H21.3001V16H11.7001V12.8Z" fill="black" fill-opacity="0.2"/>
</svg>
