<svg width="165" height="164" viewBox="0 0 165 164" fill="none" xmlns="http://www.w3.org/2000/svg">
<g filter="url(#filter0_d_169_1693)">
<mask id="path-1-inside-1_169_1693" fill="white">
<path d="M150.5 122C150.5 135.255 139.755 146 126.5 146H30.5C17.2452 146 6.5 135.255 6.5 122V36H150.5V122ZM30.5 26H6.5C6.5 12.7452 17.2452 2 30.5 2V26ZM116.5 2V26H40.5V2H116.5ZM127.119 2.00781C140.088 2.33621 150.5 12.9522 150.5 26H126.5V2L127.119 2.00781Z"/>
</mask>
<path d="M150.5 122C150.5 135.255 139.755 146 126.5 146H30.5C17.2452 146 6.5 135.255 6.5 122V36H150.5V122ZM30.5 26H6.5C6.5 12.7452 17.2452 2 30.5 2V26ZM116.5 2V26H40.5V2H116.5ZM127.119 2.00781C140.088 2.33621 150.5 12.9522 150.5 26H126.5V2L127.119 2.00781Z" fill="#A3B3FF"/>
<path d="M150.5 122H156.5H150.5ZM126.5 146V152V146ZM30.5 146V152V146ZM6.5 122H0.5H6.5ZM6.5 36V30H0.5V36H6.5ZM150.5 36H156.5V30H150.5V36ZM30.5 26V32H36.5V26H30.5ZM6.5 26H0.5L0.5 32H6.5V26ZM30.5 2H36.5V-4H30.5V2ZM116.5 2H122.5V-4H116.5V2ZM116.5 26V32H122.5V26H116.5ZM40.5 26H34.5V32H40.5V26ZM40.5 2V-4H34.5V2H40.5ZM127.119 2.00781L127.271 -3.99026L127.233 -3.99123L127.195 -3.99171L127.119 2.00781ZM150.5 26V32H156.5V26H150.5ZM126.5 26H120.5V32H126.5V26ZM126.5 2L126.576 -3.99952L120.5 -4.07619V2H126.5ZM150.5 122H144.5C144.5 131.941 136.441 140 126.5 140V146V152C143.069 152 156.5 138.569 156.5 122H150.5ZM126.5 146V140H30.5V146V152H126.5V146ZM30.5 146V140C20.5589 140 12.5 131.941 12.5 122H6.5H0.5C0.5 138.569 13.9315 152 30.5 152V146ZM6.5 122H12.5V36H6.5H0.5V122H6.5ZM6.5 36V42H150.5V36V30H6.5V36ZM150.5 36H144.5V122H150.5H156.5V36H150.5ZM30.5 26V20H6.5V26V32H30.5V26ZM6.5 26H12.5C12.5 16.0589 20.5589 8 30.5 8V2V-4C13.9315 -4 0.500002 9.43146 0.5 26H6.5ZM30.5 2H24.5V26H30.5H36.5V2H30.5ZM116.5 2H110.5V26H116.5H122.5V2H116.5ZM116.5 26V20H40.5V26V32H116.5V26ZM40.5 26H46.5V2H40.5H34.5V26H40.5ZM40.5 2V8H116.5V2V-4H40.5V2ZM127.119 2.00781L126.967 8.00589C136.691 8.25211 144.5 16.215 144.5 26H150.5H156.5C156.5 9.68934 143.485 -3.57969 127.271 -3.99026L127.119 2.00781ZM150.5 26V20H126.5V26V32H150.5V26ZM126.5 26H132.5V2H126.5H120.5V26H126.5ZM126.5 2L126.424 7.99952L127.043 8.00733L127.119 2.00781L127.195 -3.99171L126.576 -3.99952L126.5 2Z" fill="#615FFF" mask="url(#path-1-inside-1_169_1693)"/>
<path d="M58 39H100V70C100 81.598 90.598 91 79 91C67.402 91 58 81.598 58 70V39Z" fill="#A3B3FF" stroke="#615FFF" stroke-width="6"/>
<path d="M79 44C85.0751 44 89.9998 48.925 90 55C90 59.7891 86.9388 63.8607 82.667 65.3711V78.834C82.6669 80.859 81.025 82.501 79 82.501C76.975 82.501 75.3331 80.859 75.333 78.834V65.3711C71.0614 63.8606 68 59.789 68 55C68.0002 48.925 72.925 44.0001 79 44Z" fill="#615FFF"/>
</g>
<defs>
<filter id="filter0_d_169_1693" x="0.5" y="0" width="164" height="164" filterUnits="userSpaceOnUse" color-interpolation-filters="sRGB">
<feFlood flood-opacity="0" result="BackgroundImageFix"/>
<feColorMatrix in="SourceAlpha" type="matrix" values="0 0 0 0 0 0 0 0 0 0 0 0 0 0 0 0 0 0 127 0" result="hardAlpha"/>
<feOffset dx="4" dy="8"/>
<feGaussianBlur stdDeviation="5"/>
<feComposite in2="hardAlpha" operator="out"/>
<feColorMatrix type="matrix" values="0 0 0 0 0 0 0 0 0 0 0 0 0 0 0 0 0 0 0.25 0"/>
<feBlend mode="normal" in2="BackgroundImageFix" result="effect1_dropShadow_169_1693"/>
<feBlend mode="normal" in="SourceGraphic" in2="effect1_dropShadow_169_1693" result="shape"/>
</filter>
</defs>
</svg>
