<svg width="33" height="32" viewBox="0 0 33 32" fill="none" xmlns="http://www.w3.org/2000/svg">
<path d="M17.1668 9.2C19.0601 9.2 20.0068 9.92 20.3535 11.0667C20.5268 11.64 21.1001 12 21.7001 12H21.7801C22.7135 12 23.4068 11.0533 23.0735 10.1867C22.4868 8.65333 21.1935 7.41333 19.1668 6.92V6C19.1668 4.89333 18.2735 4 17.1668 4C16.0601 4 15.1668 4.89333 15.1668 6V6.88C14.6468 6.98667 14.1668 7.16 13.7001 7.36L15.7135 9.37333C16.1401 9.26667 16.6335 9.2 17.1668 9.2ZM6.86014 6.16C6.73654 6.28335 6.63847 6.42987 6.57156 6.59117C6.50466 6.75247 6.47021 6.92538 6.47021 7.1C6.47021 7.27462 6.50466 7.44754 6.57156 7.60883C6.63847 7.77013 6.73654 7.91665 6.86014 8.04L10.5001 11.6933C10.5001 14.4667 12.5801 15.9867 15.7135 16.9067L20.3935 21.5867C19.9401 22.24 18.9935 22.8 17.1668 22.8C14.9668 22.8 13.8335 22.0133 13.3935 20.8933C13.1935 20.3733 12.7401 20 12.1935 20H11.9668C11.0068 20 10.3135 20.9867 10.7001 21.8533C11.4868 23.6267 13.2201 24.68 15.1801 25.1067V26C15.1801 27.1067 16.0735 28 17.1801 28C18.2868 28 19.1801 27.1067 19.1801 26V25.1333C20.4601 24.8933 21.6201 24.4 22.4601 23.64L24.4735 25.6533C24.5969 25.7768 24.7435 25.8747 24.9047 25.9415C25.066 26.0083 25.2389 26.0427 25.4135 26.0427C25.588 26.0427 25.7609 26.0083 25.9222 25.9415C26.0835 25.8747 26.23 25.7768 26.3535 25.6533C26.4769 25.5299 26.5748 25.3833 26.6416 25.2221C26.7084 25.0608 26.7428 24.8879 26.7428 24.7133C26.7428 24.5388 26.7084 24.3659 26.6416 24.2046C26.5748 24.0433 26.4769 23.8968 26.3535 23.7733L8.74014 6.16C8.61679 6.0364 8.47027 5.93833 8.30897 5.87142C8.14767 5.80451 7.97476 5.77007 7.80014 5.77007C7.62552 5.77007 7.45261 5.80451 7.29131 5.87142C7.13001 5.93833 6.98349 6.0364 6.86014 6.16Z" fill="#CAD5E2"/>
<path d="M17.1668 9.2C19.0601 9.2 20.0068 9.92 20.3535 11.0667C20.5268 11.64 21.1001 12 21.7001 12H21.7801C22.7135 12 23.4068 11.0533 23.0735 10.1867C22.4868 8.65333 21.1935 7.41333 19.1668 6.92V6C19.1668 4.89333 18.2735 4 17.1668 4C16.0601 4 15.1668 4.89333 15.1668 6V6.88C14.6468 6.98667 14.1668 7.16 13.7001 7.36L15.7135 9.37333C16.1401 9.26667 16.6335 9.2 17.1668 9.2ZM6.86014 6.16C6.73654 6.28335 6.63847 6.42987 6.57156 6.59117C6.50466 6.75247 6.47021 6.92538 6.47021 7.1C6.47021 7.27462 6.50466 7.44754 6.57156 7.60883C6.63847 7.77013 6.73654 7.91665 6.86014 8.04L10.5001 11.6933C10.5001 14.4667 12.5801 15.9867 15.7135 16.9067L20.3935 21.5867C19.9401 22.24 18.9935 22.8 17.1668 22.8C14.9668 22.8 13.8335 22.0133 13.3935 20.8933C13.1935 20.3733 12.7401 20 12.1935 20H11.9668C11.0068 20 10.3135 20.9867 10.7001 21.8533C11.4868 23.6267 13.2201 24.68 15.1801 25.1067V26C15.1801 27.1067 16.0735 28 17.1801 28C18.2868 28 19.1801 27.1067 19.1801 26V25.1333C20.4601 24.8933 21.6201 24.4 22.4601 23.64L24.4735 25.6533C24.5969 25.7768 24.7435 25.8747 24.9047 25.9415C25.066 26.0083 25.2389 26.0427 25.4135 26.0427C25.588 26.0427 25.7609 26.0083 25.9222 25.9415C26.0835 25.8747 26.23 25.7768 26.3535 25.6533C26.4769 25.5299 26.5748 25.3833 26.6416 25.2221C26.7084 25.0608 26.7428 24.8879 26.7428 24.7133C26.7428 24.5388 26.7084 24.3659 26.6416 24.2046C26.5748 24.0433 26.4769 23.8968 26.3535 23.7733L8.74014 6.16C8.61679 6.0364 8.47027 5.93833 8.30897 5.87142C8.14767 5.80451 7.97476 5.77007 7.80014 5.77007C7.62552 5.77007 7.45261 5.80451 7.29131 5.87142C7.13001 5.93833 6.98349 6.0364 6.86014 6.16Z" fill="black" fill-opacity="0.2"/>
</svg>
