<svg width="33" height="32" viewBox="0 0 33 32" fill="none" xmlns="http://www.w3.org/2000/svg">
<path d="M14.9333 29.3333C14.3333 29.3333 13.8169 29.1333 13.384 28.7333C12.9511 28.3333 12.6898 27.8444 12.6 27.2666L12.3 25.0666C12.0111 24.9555 11.7391 24.8222 11.484 24.6666C11.2289 24.5111 10.9786 24.3444 10.7333 24.1666L8.66664 25.0333C8.11108 25.2777 7.55553 25.3 6.99997 25.1C6.44442 24.9 6.01109 24.5444 5.69997 24.0333L4.13331 21.3C3.8222 20.7888 3.73331 20.2444 3.86664 19.6666C3.99997 19.0888 4.29997 18.6111 4.76664 18.2333L6.53331 16.9C6.51109 16.7444 6.49997 16.5942 6.49997 16.4493V15.5493C6.49997 15.4053 6.51109 15.2555 6.53331 15.1L4.76664 13.7666C4.29997 13.3888 3.99997 12.9111 3.86664 12.3333C3.73331 11.7555 3.8222 11.2111 4.13331 10.7L5.69997 7.96663C6.01109 7.45551 6.44442 7.09996 6.99997 6.89996C7.55553 6.69996 8.11108 6.72218 8.66664 6.96663L10.7333 7.83329C10.9778 7.65551 11.2333 7.48885 11.5 7.33329C11.7666 7.17774 12.0333 7.0444 12.3 6.93329L12.6 4.73329C12.6889 4.15551 12.9502 3.66663 13.384 3.26663C13.8178 2.86663 14.3342 2.66663 14.9333 2.66663H18.0666C18.6666 2.66663 19.1835 2.86663 19.6173 3.26663C20.0511 3.66663 20.312 4.15551 20.4 4.73329L20.7 6.93329C20.9889 7.0444 21.2613 7.17774 21.5173 7.33329C21.7733 7.48885 22.0231 7.65551 22.2666 7.83329L24.3333 6.96663C24.8889 6.72218 25.4444 6.69996 26 6.89996C26.5555 7.09996 26.9889 7.45551 27.3 7.96663L28.8666 10.7C29.1777 11.2111 29.2666 11.7555 29.1333 12.3333C29 12.9111 28.7 13.3888 28.2333 13.7666L26.4666 15.1C26.4889 15.2555 26.5 15.4057 26.5 15.5506V16.4493C26.5 16.5942 26.4778 16.7444 26.4333 16.9L28.2 18.2333C28.6666 18.6111 28.9666 19.0888 29.1 19.6666C29.2333 20.2444 29.1444 20.7888 28.8333 21.3L27.2333 24.0333C26.9222 24.5444 26.4889 24.9 25.9333 25.1C25.3778 25.3 24.8222 25.2777 24.2666 25.0333L22.2666 24.1666C22.0222 24.3444 21.7666 24.5111 21.5 24.6666C21.2333 24.8222 20.9666 24.9555 20.7 25.0666L20.4 27.2666C20.3111 27.8444 20.0502 28.3333 19.6173 28.7333C19.1844 29.1333 18.6675 29.3333 18.0666 29.3333H14.9333ZM15.1666 26.6666H17.8L18.2666 23.1333C18.9555 22.9555 19.5946 22.6946 20.184 22.3506C20.7733 22.0066 21.312 21.5897 21.8 21.1L25.1 22.4666L26.4 20.2L23.5333 18.0333C23.6444 17.7222 23.7222 17.3946 23.7666 17.0506C23.8111 16.7066 23.8333 16.3564 23.8333 16C23.8333 15.6435 23.8111 15.2937 23.7666 14.9506C23.7222 14.6075 23.6444 14.2795 23.5333 13.9666L26.4 11.8L25.1 9.53329L21.8 10.9333C21.3111 10.4222 20.7724 9.99463 20.184 9.65063C19.5955 9.30663 18.9564 9.04529 18.2666 8.86663L17.8333 5.33329H15.2L14.7333 8.86663C14.0444 9.0444 13.4058 9.30574 12.8173 9.65063C12.2289 9.99551 11.6898 10.412 11.2 10.9L7.89997 9.53329L6.59997 11.8L9.46664 13.9333C9.35553 14.2666 9.27775 14.6 9.23331 14.9333C9.18886 15.2666 9.16664 15.6222 9.16664 16C9.16664 16.3555 9.18886 16.7 9.23331 17.0333C9.27775 17.3666 9.35553 17.7 9.46664 18.0333L6.59997 20.2L7.89997 22.4666L11.2 21.0666C11.6889 21.5777 12.228 22.0057 12.8173 22.3506C13.4066 22.6955 14.0453 22.9564 14.7333 23.1333L15.1666 26.6666ZM16.5666 20.6666C17.8555 20.6666 18.9555 20.2111 19.8666 19.3C20.7778 18.3888 21.2333 17.2888 21.2333 16C21.2333 14.7111 20.7778 13.6111 19.8666 12.7C18.9555 11.7888 17.8555 11.3333 16.5666 11.3333C15.2555 11.3333 14.1502 11.7888 13.2506 12.7C12.3511 13.6111 11.9009 14.7111 11.9 16C11.8991 17.2888 12.3493 18.3888 13.2506 19.3C14.152 20.2111 15.2573 20.6666 16.5666 20.6666Z" fill="#CAD5E2"/>
<path d="M14.9333 29.3333C14.3333 29.3333 13.8169 29.1333 13.384 28.7333C12.9511 28.3333 12.6898 27.8444 12.6 27.2666L12.3 25.0666C12.0111 24.9555 11.7391 24.8222 11.484 24.6666C11.2289 24.5111 10.9786 24.3444 10.7333 24.1666L8.66664 25.0333C8.11108 25.2777 7.55553 25.3 6.99997 25.1C6.44442 24.9 6.01109 24.5444 5.69997 24.0333L4.13331 21.3C3.8222 20.7888 3.73331 20.2444 3.86664 19.6666C3.99997 19.0888 4.29997 18.6111 4.76664 18.2333L6.53331 16.9C6.51109 16.7444 6.49997 16.5942 6.49997 16.4493V15.5493C6.49997 15.4053 6.51109 15.2555 6.53331 15.1L4.76664 13.7666C4.29997 13.3888 3.99997 12.9111 3.86664 12.3333C3.73331 11.7555 3.8222 11.2111 4.13331 10.7L5.69997 7.96663C6.01109 7.45551 6.44442 7.09996 6.99997 6.89996C7.55553 6.69996 8.11108 6.72218 8.66664 6.96663L10.7333 7.83329C10.9778 7.65551 11.2333 7.48885 11.5 7.33329C11.7666 7.17774 12.0333 7.0444 12.3 6.93329L12.6 4.73329C12.6889 4.15551 12.9502 3.66663 13.384 3.26663C13.8178 2.86663 14.3342 2.66663 14.9333 2.66663H18.0666C18.6666 2.66663 19.1835 2.86663 19.6173 3.26663C20.0511 3.66663 20.312 4.15551 20.4 4.73329L20.7 6.93329C20.9889 7.0444 21.2613 7.17774 21.5173 7.33329C21.7733 7.48885 22.0231 7.65551 22.2666 7.83329L24.3333 6.96663C24.8889 6.72218 25.4444 6.69996 26 6.89996C26.5555 7.09996 26.9889 7.45551 27.3 7.96663L28.8666 10.7C29.1777 11.2111 29.2666 11.7555 29.1333 12.3333C29 12.9111 28.7 13.3888 28.2333 13.7666L26.4666 15.1C26.4889 15.2555 26.5 15.4057 26.5 15.5506V16.4493C26.5 16.5942 26.4778 16.7444 26.4333 16.9L28.2 18.2333C28.6666 18.6111 28.9666 19.0888 29.1 19.6666C29.2333 20.2444 29.1444 20.7888 28.8333 21.3L27.2333 24.0333C26.9222 24.5444 26.4889 24.9 25.9333 25.1C25.3778 25.3 24.8222 25.2777 24.2666 25.0333L22.2666 24.1666C22.0222 24.3444 21.7666 24.5111 21.5 24.6666C21.2333 24.8222 20.9666 24.9555 20.7 25.0666L20.4 27.2666C20.3111 27.8444 20.0502 28.3333 19.6173 28.7333C19.1844 29.1333 18.6675 29.3333 18.0666 29.3333H14.9333ZM15.1666 26.6666H17.8L18.2666 23.1333C18.9555 22.9555 19.5946 22.6946 20.184 22.3506C20.7733 22.0066 21.312 21.5897 21.8 21.1L25.1 22.4666L26.4 20.2L23.5333 18.0333C23.6444 17.7222 23.7222 17.3946 23.7666 17.0506C23.8111 16.7066 23.8333 16.3564 23.8333 16C23.8333 15.6435 23.8111 15.2937 23.7666 14.9506C23.7222 14.6075 23.6444 14.2795 23.5333 13.9666L26.4 11.8L25.1 9.53329L21.8 10.9333C21.3111 10.4222 20.7724 9.99463 20.184 9.65063C19.5955 9.30663 18.9564 9.04529 18.2666 8.86663L17.8333 5.33329H15.2L14.7333 8.86663C14.0444 9.0444 13.4058 9.30574 12.8173 9.65063C12.2289 9.99551 11.6898 10.412 11.2 10.9L7.89997 9.53329L6.59997 11.8L9.46664 13.9333C9.35553 14.2666 9.27775 14.6 9.23331 14.9333C9.18886 15.2666 9.16664 15.6222 9.16664 16C9.16664 16.3555 9.18886 16.7 9.23331 17.0333C9.27775 17.3666 9.35553 17.7 9.46664 18.0333L6.59997 20.2L7.89997 22.4666L11.2 21.0666C11.6889 21.5777 12.228 22.0057 12.8173 22.3506C13.4066 22.6955 14.0453 22.9564 14.7333 23.1333L15.1666 26.6666ZM16.5666 20.6666C17.8555 20.6666 18.9555 20.2111 19.8666 19.3C20.7778 18.3888 21.2333 17.2888 21.2333 16C21.2333 14.7111 20.7778 13.6111 19.8666 12.7C18.9555 11.7888 17.8555 11.3333 16.5666 11.3333C15.2555 11.3333 14.1502 11.7888 13.2506 12.7C12.3511 13.6111 11.9009 14.7111 11.9 16C11.8991 17.2888 12.3493 18.3888 13.2506 19.3C14.152 20.2111 15.2573 20.6666 16.5666 20.6666Z" fill="black" fill-opacity="0.2"/>
</svg>
