<svg width="32" height="32" viewBox="0 0 32 32" fill="none" xmlns="http://www.w3.org/2000/svg">
<path d="M18.1299 0.000792337C15.4826 0.0336168 12.7362 1.04687 10.215 3.14223H15.6586V6.09561C19.2278 4.06118 23.4106 3.93549 26.7488 6.09766L25.5184 6.76236L29.8945 10.2308L29.6408 4.53344L27.8544 5.49943C25.5009 1.96971 22.054 0.0448318 18.3921 0.000792337C18.3048 -0.000264112 18.2174 -0.000264112 18.13 0.000792337H18.1299ZM0 4.42013V18.9689H14.3944V4.42013H0.000135223H0ZM3.40151 6.20017H12.6334V15.7014H11.3671V7.4782H3.40158V6.20024L3.40151 6.20017ZM3.62773 8.80739L9.72247 15.0881L8.81977 15.9836L2.72502 9.70281L3.62773 8.80739ZM17.6077 13.0301V27.5811H32V13.0303H17.6077V13.0301ZM21.0071 14.8125H30.239V24.3114H28.975V16.0902H21.0073L21.0072 14.8124L21.0071 14.8125ZM21.2333 17.4175L27.3301 23.7003L26.4276 24.5936L20.3307 18.3129L21.2334 17.4176L21.2333 17.4175ZM2.39111 21.7706L2.64479 27.4678L4.22182 26.6151C8.34345 32.6764 15.7214 33.897 21.7851 28.859H16.3435V25.9056C12.8204 27.9148 8.69922 28.0628 5.3824 25.9869L6.76487 25.2389L2.39111 21.7706Z" fill="#CAD5E2"/>
<path d="M18.1299 0.000792337C15.4826 0.0336168 12.7362 1.04687 10.215 3.14223H15.6586V6.09561C19.2278 4.06118 23.4106 3.93549 26.7488 6.09766L25.5184 6.76236L29.8945 10.2308L29.6408 4.53344L27.8544 5.49943C25.5009 1.96971 22.054 0.0448318 18.3921 0.000792337C18.3048 -0.000264112 18.2174 -0.000264112 18.13 0.000792337H18.1299ZM0 4.42013V18.9689H14.3944V4.42013H0.000135223H0ZM3.40151 6.20017H12.6334V15.7014H11.3671V7.4782H3.40158V6.20024L3.40151 6.20017ZM3.62773 8.80739L9.72247 15.0881L8.81977 15.9836L2.72502 9.70281L3.62773 8.80739ZM17.6077 13.0301V27.5811H32V13.0303H17.6077V13.0301ZM21.0071 14.8125H30.239V24.3114H28.975V16.0902H21.0073L21.0072 14.8124L21.0071 14.8125ZM21.2333 17.4175L27.3301 23.7003L26.4276 24.5936L20.3307 18.3129L21.2334 17.4176L21.2333 17.4175ZM2.39111 21.7706L2.64479 27.4678L4.22182 26.6151C8.34345 32.6764 15.7214 33.897 21.7851 28.859H16.3435V25.9056C12.8204 27.9148 8.69922 28.0628 5.3824 25.9869L6.76487 25.2389L2.39111 21.7706Z" fill="black" fill-opacity="0.2"/>
</svg>
